<svg width="240" height="250" viewBox="0 0 60 39" fill="none" xmlns="http://www.w3.org/2000/svg">
<path fill-rule="evenodd" clip-rule="evenodd" d="M11.2639 13.1193C12.1407 13.4504 12.9277 13.9822 13.5618 14.6722C14.196 15.3622 14.6597 16.1912 14.9158 17.0927C15.172 17.9942 15.2133 18.9431 15.0367 19.8635C14.86 20.7839 14.4702 21.6501 13.8984 22.3926L14.048 22.7239L14.6298 24.0129L15.2117 25.3018L14.5046 27.1727L16.3754 27.8798L14.9612 31.6214L11.2196 30.2072L8.74258 24.7201C7.88265 24.6618 7.04535 24.419 6.28769 24.0081C5.53003 23.5972 4.86979 23.0279 4.3519 22.339C3.83402 21.65 3.47065 20.8575 3.28652 20.0155C3.1024 19.1735 3.10185 18.3017 3.2849 17.4595C3.46795 16.6173 3.83032 15.8243 4.34733 15.1347C4.86434 14.4451 5.52386 13.875 6.281 13.4631C7.03814 13.0513 7.87512 12.8074 8.73498 12.748C9.59484 12.6887 10.4574 12.8153 11.2639 13.1193ZM5.40095 17.3175C5.30718 17.5656 5.31581 17.8408 5.42493 18.0825C5.53405 18.3243 5.73472 18.5127 5.98281 18.6065C6.2309 18.7003 6.50607 18.6917 6.7478 18.5825C6.98953 18.4734 7.17801 18.2727 7.27178 18.0247C7.45931 17.5285 7.83627 17.1271 8.31973 16.9089C8.80319 16.6906 9.35354 16.6734 9.84971 16.8609C10.0978 16.9547 10.373 16.9461 10.6147 16.837C10.8564 16.7278 11.0449 16.5272 11.1387 16.2791C11.2324 16.031 11.2238 15.7558 11.1147 15.5141C11.0056 15.2723 10.8049 15.0839 10.5568 14.9901C9.56447 14.615 8.46377 14.6495 7.49685 15.086C6.52994 15.5225 5.77602 16.3252 5.40095 17.3175Z" fill="#05D932"/>
<path d="M18.08 18L16.892 14.868H11.618L10.43 18H8.45L13.328 5.4H15.308L20.15 18H18.08ZM13.292 10.476L12.338 12.996H16.19L15.2 10.404C15.044 9.984 14.888 9.534 14.732 9.054C14.576 8.562 14.42 8.07 14.264 7.578C14.096 8.082 13.928 8.586 13.76 9.09C13.604 9.594 13.448 10.056 13.292 10.476ZM38.5061 19.566C38.8661 19.842 39.3161 20.064 39.8561 20.232C40.3961 20.4 40.9241 20.484 41.4401 20.484C42.4121 20.484 43.1561 20.244 43.6721 19.764C44.1881 19.296 44.4461 18.588 44.4461 17.64V16.488C44.2781 16.776 44.0381 17.052 43.7261 17.316C43.4141 17.568 43.0481 17.778 42.6281 17.946C42.2081 18.102 41.7701 18.18 41.3141 18.18C40.4381 18.18 39.6461 17.97 38.9381 17.55C38.2301 17.13 37.6661 16.548 37.2461 15.804C36.8381 15.06 36.6341 14.214 36.6341 13.266C36.6341 12.306 36.8381 11.46 37.2461 10.728C37.6541 9.984 38.2061 9.402 38.9021 8.982C39.6101 8.562 40.3961 8.352 41.2601 8.352C41.9801 8.352 42.6161 8.514 43.1681 8.838C43.7321 9.15 44.1581 9.492 44.4461 9.864V8.55H46.3001V17.424C46.3001 18.552 46.0721 19.458 45.6161 20.142C45.1721 20.838 44.5781 21.342 43.8341 21.654C43.1021 21.978 42.3041 22.14 41.4401 22.14C40.7681 22.14 40.0961 22.032 39.4241 21.816C38.7641 21.612 38.2301 21.342 37.8221 21.006L38.5061 19.566ZM41.5121 10.044C40.9361 10.044 40.4201 10.188 39.9641 10.476C39.5201 10.752 39.1661 11.136 38.9021 11.628C38.6501 12.108 38.5241 12.654 38.5241 13.266C38.5241 13.878 38.6501 14.424 38.9021 14.904C39.1661 15.384 39.5201 15.768 39.9641 16.056C40.4201 16.332 40.9361 16.47 41.5121 16.47C42.1121 16.47 42.6341 16.332 43.0781 16.056C43.5341 15.78 43.8881 15.402 44.1401 14.922C44.3921 14.43 44.5181 13.878 44.5181 13.266C44.5181 12.642 44.3921 12.09 44.1401 11.61C43.8881 11.13 43.5341 10.752 43.0781 10.476C42.6341 10.188 42.1121 10.044 41.5121 10.044Z" fill="#217032"/>
<path d="M21.8995 18V4.68H23.7535V18H21.8995ZM32.7556 14.238V8.55H34.6096V18H32.7556V16.488C32.4796 16.932 32.0716 17.328 31.5316 17.676C31.0036 18.012 30.3676 18.18 29.6236 18.18C28.6396 18.18 27.8416 17.844 27.2296 17.172C26.6176 16.5 26.3116 15.57 26.3116 14.382V8.55H28.1656V13.878C28.1656 14.358 28.2376 14.802 28.3816 15.21C28.5376 15.618 28.7776 15.948 29.1016 16.2C29.4376 16.44 29.8636 16.56 30.3796 16.56C31.0276 16.56 31.5856 16.356 32.0536 15.948C32.5216 15.54 32.7556 14.97 32.7556 14.238ZM57.7015 8.55V18H55.8295V16.542C55.5415 16.938 55.1155 17.31 54.5515 17.658C53.9875 18.006 53.3335 18.18 52.5895 18.18C51.7975 18.18 51.0715 17.97 50.4115 17.55C49.7635 17.13 49.2475 16.548 48.8635 15.804C48.4795 15.06 48.2875 14.208 48.2875 13.248C48.2875 12.288 48.4855 11.442 48.8815 10.71C49.2775 9.966 49.8235 9.39 50.5195 8.982C51.2155 8.562 52.0075 8.352 52.8955 8.352C53.5555 8.352 54.1315 8.496 54.6235 8.784C55.1275 9.072 55.5295 9.408 55.8295 9.792V8.55H57.7015ZM53.0215 16.47C53.5975 16.47 54.1015 16.332 54.5335 16.056C54.9655 15.768 55.3015 15.384 55.5415 14.904C55.7815 14.412 55.9015 13.86 55.9015 13.248C55.9015 12.648 55.7815 12.108 55.5415 11.628C55.3015 11.148 54.9655 10.77 54.5335 10.494C54.1015 10.206 53.5975 10.062 53.0215 10.062C52.4695 10.062 51.9775 10.2 51.5455 10.476C51.1135 10.752 50.7775 11.13 50.5375 11.61C50.2975 12.09 50.1775 12.636 50.1775 13.248C50.1775 13.86 50.2975 14.412 50.5375 14.904C50.7775 15.384 51.1135 15.768 51.5455 16.056C51.9775 16.332 52.4695 16.47 53.0215 16.47Z" fill="#05D932"/>
<path d="M19.764 34V21.4H27.936V23.272H21.708V26.764H27.126V28.636H21.708V34H19.764ZM38.5746 24.55V34H36.7026V32.542C36.4146 32.938 35.9886 33.31 35.4246 33.658C34.8606 34.006 34.2066 34.18 33.4626 34.18C32.6706 34.18 31.9446 33.97 31.2846 33.55C30.6366 33.13 30.1206 32.548 29.7366 31.804C29.3526 31.06 29.1606 30.208 29.1606 29.248C29.1606 28.288 29.3586 27.442 29.7546 26.71C30.1506 25.966 30.6966 25.39 31.3926 24.982C32.0886 24.562 32.8806 24.352 33.7686 24.352C34.4286 24.352 35.0046 24.496 35.4966 24.784C36.0006 25.072 36.4026 25.408 36.7026 25.792V24.55H38.5746ZM33.8946 32.47C34.4706 32.47 34.9746 32.332 35.4066 32.056C35.8386 31.768 36.1746 31.384 36.4146 30.904C36.6546 30.412 36.7746 29.86 36.7746 29.248C36.7746 28.648 36.6546 28.108 36.4146 27.628C36.1746 27.148 35.8386 26.77 35.4066 26.494C34.9746 26.206 34.4706 26.062 33.8946 26.062C33.3426 26.062 32.8506 26.2 32.4186 26.476C31.9866 26.752 31.6506 27.13 31.4106 27.61C31.1706 28.09 31.0506 28.636 31.0506 29.248C31.0506 29.86 31.1706 30.412 31.4106 30.904C31.6506 31.384 31.9866 31.768 32.4186 32.056C32.8506 32.332 33.3426 32.47 33.8946 32.47ZM33.6966 22.642L33.0846 21.724L35.6586 19.474L36.8286 20.95L33.6966 22.642ZM42.3512 29.266C42.3512 29.89 42.4892 30.448 42.7652 30.94C43.0532 31.42 43.4252 31.804 43.8812 32.092C44.3492 32.368 44.8472 32.506 45.3752 32.506C45.9752 32.506 46.4972 32.35 46.9412 32.038C47.3852 31.726 47.7452 31.402 48.0212 31.066L49.0472 32.326C48.8192 32.65 48.5072 32.956 48.1112 33.244C47.7152 33.52 47.2652 33.748 46.7612 33.928C46.2572 34.096 45.7292 34.18 45.1772 34.18C44.3132 34.18 43.5332 33.964 42.8372 33.532C42.1412 33.1 41.5892 32.512 41.1812 31.768C40.7852 31.024 40.5872 30.19 40.5872 29.266C40.5872 28.33 40.7852 27.496 41.1812 26.764C41.5892 26.02 42.1412 25.432 42.8372 25C43.5332 24.568 44.3132 24.352 45.1772 24.352C46.0532 24.352 46.8332 24.532 47.5172 24.892C48.2012 25.24 48.7112 25.696 49.0472 26.26L48.0212 27.52C47.7452 27.112 47.3492 26.764 46.8332 26.476C46.3292 26.176 45.8372 26.026 45.3572 26.026C44.7932 26.026 44.2832 26.17 43.8272 26.458C43.3712 26.734 43.0112 27.118 42.7472 27.61C42.4832 28.09 42.3512 28.642 42.3512 29.266ZM52.038 22.498C51.618 22.498 51.306 22.39 51.102 22.174C50.898 21.958 50.796 21.676 50.796 21.328C50.796 21.028 50.898 20.758 51.102 20.518C51.306 20.278 51.618 20.158 52.038 20.158C52.458 20.158 52.77 20.266 52.974 20.482C53.178 20.698 53.28 20.98 53.28 21.328C53.28 21.628 53.178 21.898 52.974 22.138C52.77 22.378 52.458 22.498 52.038 22.498ZM52.992 34H51.138V24.55H52.992V34ZM55.8058 34V20.68H57.6598V34H55.8058Z" fill="#05D932"/>
<path d="M4 11L25 1L46 11" stroke="#217032" stroke-width="0.9" stroke-linecap="round" stroke-linejoin="round"/>
<path d="M32.5 4.5V1H35.5V6" stroke="#217032" stroke-width="0.5" stroke-linecap="round" stroke-linejoin="round"/>
</svg>
